<mxfile host="app.diagrams.net" modified="2021-03-14T14:58:16.763Z" agent="5.0 (Windows NT 10.0; Win64; x64) AppleWebKit/537.36 (KHTML, like Gecko) Chrome/88.0.4324.190 Safari/537.36" etag="H9SPDis70EhD4xEMCJEf" version="14.4.8" type="github">
  <diagram id="hDlai8KwJyfp5ygMdkSd" name="Page-1">
    <mxGraphModel dx="1955" dy="2103" grid="1" gridSize="10" guides="1" tooltips="1" connect="1" arrows="1" fold="1" page="1" pageScale="1" pageWidth="827" pageHeight="1169" math="0" shadow="0">
      <root>
        <mxCell id="0" />
        <mxCell id="1" parent="0" />
        <mxCell id="vOUudeW_BmgEyp0vM7fF-8" value="&lt;font face=&quot;Verdana&quot;&gt;Título III. Derechos de las personas.&lt;/font&gt;" style="rounded=1;whiteSpace=wrap;html=1;fillColor=#FFFFFF;" vertex="1" parent="1">
          <mxGeometry x="354" y="220" width="120" height="60" as="geometry" />
        </mxCell>
        <mxCell id="vOUudeW_BmgEyp0vM7fF-9" value="&lt;font face=&quot;Verdana&quot;&gt;Información que debe aportar el responsable:&amp;nbsp;&lt;/font&gt;" style="rounded=1;whiteSpace=wrap;html=1;fillColor=#FFFFFF;" vertex="1" parent="1">
          <mxGeometry x="347" y="-30" width="120" height="60" as="geometry" />
        </mxCell>
        <mxCell id="vOUudeW_BmgEyp0vM7fF-10" value="&lt;font face=&quot;Verdana&quot;&gt;-&lt;/font&gt;Los derechos&amp;nbsp;podrán ejercerse directamente o por medio de representante legal o voluntario&lt;br&gt;&lt;br&gt;-El responsable del tratamiento estará obligado a informar al afectado sobre los&lt;br&gt;medios a su disposición para ejercer los derechos que le corresponden&lt;br&gt;&lt;br&gt;-El encargado podrá tramitar, por cuenta del responsable, las solicitudes de&lt;br/&gt;ejercicio formuladas por los afectados de sus derechos" style="rounded=1;whiteSpace=wrap;html=1;fillColor=#FFFFFF;" vertex="1" parent="1">
          <mxGeometry y="610" width="430" height="250" as="geometry" />
        </mxCell>
        <mxCell id="vOUudeW_BmgEyp0vM7fF-11" value="" style="rounded=1;whiteSpace=wrap;html=1;fillColor=#FFFFFF;" vertex="1" parent="1">
          <mxGeometry x="209" y="410" width="120" height="60" as="geometry" />
        </mxCell>
        <mxCell id="vOUudeW_BmgEyp0vM7fF-12" value="" style="rounded=1;whiteSpace=wrap;html=1;fillColor=#FFFFFF;" vertex="1" parent="1">
          <mxGeometry x="354" y="410" width="120" height="60" as="geometry" />
        </mxCell>
        <mxCell id="vOUudeW_BmgEyp0vM7fF-13" value="" style="rounded=1;whiteSpace=wrap;html=1;fillColor=#FFFFFF;" vertex="1" parent="1">
          <mxGeometry x="499" y="410" width="120" height="60" as="geometry" />
        </mxCell>
        <mxCell id="vOUudeW_BmgEyp0vM7fF-14" value="" style="rounded=1;whiteSpace=wrap;html=1;fillColor=#FFFFFF;" vertex="1" parent="1">
          <mxGeometry x="640" y="410" width="120" height="60" as="geometry" />
        </mxCell>
        <mxCell id="vOUudeW_BmgEyp0vM7fF-15" value="" style="rounded=1;whiteSpace=wrap;html=1;fillColor=#FFFFFF;" vertex="1" parent="1">
          <mxGeometry x="790" y="410" width="120" height="60" as="geometry" />
        </mxCell>
        <mxCell id="vOUudeW_BmgEyp0vM7fF-16" value="" style="endArrow=none;html=1;exitX=0.5;exitY=0;exitDx=0;exitDy=0;" edge="1" parent="1" source="vOUudeW_BmgEyp0vM7fF-8" target="vOUudeW_BmgEyp0vM7fF-17">
          <mxGeometry width="50" height="50" relative="1" as="geometry">
            <mxPoint x="410" y="310" as="sourcePoint" />
            <mxPoint x="300" y="300" as="targetPoint" />
          </mxGeometry>
        </mxCell>
        <mxCell id="vOUudeW_BmgEyp0vM7fF-17" value="Artículo 11. Transparencia e información al afectado" style="text;html=1;strokeColor=none;fillColor=none;align=center;verticalAlign=middle;whiteSpace=wrap;rounded=0;" vertex="1" parent="1">
          <mxGeometry x="374" y="100" width="80" height="50" as="geometry" />
        </mxCell>
        <mxCell id="vOUudeW_BmgEyp0vM7fF-18" value="" style="endArrow=classic;html=1;entryX=0.5;entryY=1;entryDx=0;entryDy=0;" edge="1" parent="1" target="vOUudeW_BmgEyp0vM7fF-9">
          <mxGeometry width="50" height="50" relative="1" as="geometry">
            <mxPoint x="410" y="90" as="sourcePoint" />
            <mxPoint x="407" y="40" as="targetPoint" />
          </mxGeometry>
        </mxCell>
        <mxCell id="vOUudeW_BmgEyp0vM7fF-19" value="" style="endArrow=none;html=1;exitX=0;exitY=0.75;exitDx=0;exitDy=0;" edge="1" parent="1" source="vOUudeW_BmgEyp0vM7fF-8" target="vOUudeW_BmgEyp0vM7fF-20">
          <mxGeometry width="50" height="50" relative="1" as="geometry">
            <mxPoint x="410" y="280" as="sourcePoint" />
            <mxPoint x="150" y="280" as="targetPoint" />
          </mxGeometry>
        </mxCell>
        <mxCell id="vOUudeW_BmgEyp0vM7fF-20" value="Artículo 12. Disposiciones generales sobre ejercicio de los derechos." style="text;html=1;strokeColor=none;fillColor=none;align=center;verticalAlign=middle;whiteSpace=wrap;rounded=0;" vertex="1" parent="1">
          <mxGeometry x="25" y="270" width="210" height="20" as="geometry" />
        </mxCell>
        <mxCell id="vOUudeW_BmgEyp0vM7fF-21" value="" style="endArrow=classic;html=1;entryX=0.5;entryY=0;entryDx=0;entryDy=0;" edge="1" parent="1" target="vOUudeW_BmgEyp0vM7fF-10">
          <mxGeometry width="50" height="50" relative="1" as="geometry">
            <mxPoint x="130" y="300" as="sourcePoint" />
            <mxPoint x="460" y="180" as="targetPoint" />
          </mxGeometry>
        </mxCell>
        <mxCell id="vOUudeW_BmgEyp0vM7fF-22" value="" style="endArrow=none;html=1;exitX=0;exitY=1;exitDx=0;exitDy=0;" edge="1" parent="1" source="vOUudeW_BmgEyp0vM7fF-8">
          <mxGeometry width="50" height="50" relative="1" as="geometry">
            <mxPoint x="410" y="230" as="sourcePoint" />
            <mxPoint x="300" y="310" as="targetPoint" />
          </mxGeometry>
        </mxCell>
        <mxCell id="vOUudeW_BmgEyp0vM7fF-23" value="Artículo 13. Derecho de acceso." style="text;html=1;strokeColor=none;fillColor=none;align=center;verticalAlign=middle;whiteSpace=wrap;rounded=0;" vertex="1" parent="1">
          <mxGeometry x="214" y="320" width="110" height="20" as="geometry" />
        </mxCell>
        <mxCell id="vOUudeW_BmgEyp0vM7fF-24" value="" style="endArrow=classic;html=1;entryX=0.5;entryY=0;entryDx=0;entryDy=0;" edge="1" parent="1" target="vOUudeW_BmgEyp0vM7fF-11">
          <mxGeometry width="50" height="50" relative="1" as="geometry">
            <mxPoint x="269" y="350" as="sourcePoint" />
            <mxPoint x="460" y="150" as="targetPoint" />
          </mxGeometry>
        </mxCell>
        <mxCell id="vOUudeW_BmgEyp0vM7fF-27" value="" style="endArrow=none;html=1;exitX=0.5;exitY=1;exitDx=0;exitDy=0;" edge="1" parent="1" source="vOUudeW_BmgEyp0vM7fF-8">
          <mxGeometry width="50" height="50" relative="1" as="geometry">
            <mxPoint x="450" y="310" as="sourcePoint" />
            <mxPoint x="414" y="300" as="targetPoint" />
          </mxGeometry>
        </mxCell>
        <mxCell id="vOUudeW_BmgEyp0vM7fF-28" value="Artículo 14. Derecho de rectificación" style="text;html=1;strokeColor=none;fillColor=none;align=center;verticalAlign=middle;whiteSpace=wrap;rounded=0;" vertex="1" parent="1">
          <mxGeometry x="361" y="310" width="106" height="20" as="geometry" />
        </mxCell>
        <mxCell id="vOUudeW_BmgEyp0vM7fF-29" value="" style="endArrow=classic;html=1;" edge="1" parent="1">
          <mxGeometry width="50" height="50" relative="1" as="geometry">
            <mxPoint x="414" y="340" as="sourcePoint" />
            <mxPoint x="414" y="408" as="targetPoint" />
          </mxGeometry>
        </mxCell>
        <mxCell id="vOUudeW_BmgEyp0vM7fF-30" value="" style="endArrow=none;html=1;exitX=1;exitY=0.5;exitDx=0;exitDy=0;" edge="1" parent="1" source="vOUudeW_BmgEyp0vM7fF-8" target="vOUudeW_BmgEyp0vM7fF-39">
          <mxGeometry width="50" height="50" relative="1" as="geometry">
            <mxPoint x="410" y="170" as="sourcePoint" />
            <mxPoint x="820" y="250" as="targetPoint" />
          </mxGeometry>
        </mxCell>
        <mxCell id="vOUudeW_BmgEyp0vM7fF-31" value="" style="endArrow=none;html=1;exitX=1;exitY=0.75;exitDx=0;exitDy=0;" edge="1" parent="1" source="vOUudeW_BmgEyp0vM7fF-8" target="vOUudeW_BmgEyp0vM7fF-35">
          <mxGeometry width="50" height="50" relative="1" as="geometry">
            <mxPoint x="410" y="170" as="sourcePoint" />
            <mxPoint x="670" y="290" as="targetPoint" />
          </mxGeometry>
        </mxCell>
        <mxCell id="vOUudeW_BmgEyp0vM7fF-32" value="" style="endArrow=none;html=1;exitX=1;exitY=1;exitDx=0;exitDy=0;entryX=0.182;entryY=-0.2;entryDx=0;entryDy=0;entryPerimeter=0;" edge="1" parent="1" source="vOUudeW_BmgEyp0vM7fF-8" target="vOUudeW_BmgEyp0vM7fF-33">
          <mxGeometry width="50" height="50" relative="1" as="geometry">
            <mxPoint x="410" y="170" as="sourcePoint" />
            <mxPoint x="510" y="300" as="targetPoint" />
          </mxGeometry>
        </mxCell>
        <mxCell id="vOUudeW_BmgEyp0vM7fF-33" value="Artículo 15. Derecho de supresión" style="text;html=1;strokeColor=none;fillColor=none;align=center;verticalAlign=middle;whiteSpace=wrap;rounded=0;" vertex="1" parent="1">
          <mxGeometry x="480" y="300" width="110" height="20" as="geometry" />
        </mxCell>
        <mxCell id="vOUudeW_BmgEyp0vM7fF-34" value="" style="endArrow=classic;html=1;" edge="1" parent="1">
          <mxGeometry width="50" height="50" relative="1" as="geometry">
            <mxPoint x="540" y="330" as="sourcePoint" />
            <mxPoint x="540" y="410" as="targetPoint" />
          </mxGeometry>
        </mxCell>
        <mxCell id="vOUudeW_BmgEyp0vM7fF-35" value="Artículo 16. Derecho a la limitación del tratamiento." style="text;html=1;strokeColor=none;fillColor=none;align=center;verticalAlign=middle;whiteSpace=wrap;rounded=0;" vertex="1" parent="1">
          <mxGeometry x="619" y="300" width="110" height="20" as="geometry" />
        </mxCell>
        <mxCell id="vOUudeW_BmgEyp0vM7fF-36" value="" style="endArrow=classic;html=1;entryX=0.342;entryY=-0.017;entryDx=0;entryDy=0;entryPerimeter=0;" edge="1" parent="1" target="vOUudeW_BmgEyp0vM7fF-14">
          <mxGeometry width="50" height="50" relative="1" as="geometry">
            <mxPoint x="680" y="340" as="sourcePoint" />
            <mxPoint x="460" y="50" as="targetPoint" />
          </mxGeometry>
        </mxCell>
        <mxCell id="vOUudeW_BmgEyp0vM7fF-39" value="Artículo 17. Derecho a la portabilidad" style="text;html=1;strokeColor=none;fillColor=none;align=center;verticalAlign=middle;whiteSpace=wrap;rounded=0;" vertex="1" parent="1">
          <mxGeometry x="780" y="270" width="110" height="20" as="geometry" />
        </mxCell>
        <mxCell id="vOUudeW_BmgEyp0vM7fF-40" value="" style="endArrow=classic;html=1;entryX=0.442;entryY=-0.067;entryDx=0;entryDy=0;entryPerimeter=0;" edge="1" parent="1" target="vOUudeW_BmgEyp0vM7fF-15">
          <mxGeometry width="50" height="50" relative="1" as="geometry">
            <mxPoint x="840" y="300" as="sourcePoint" />
            <mxPoint x="500" y="110" as="targetPoint" />
          </mxGeometry>
        </mxCell>
        <mxCell id="vOUudeW_BmgEyp0vM7fF-41" value="" style="endArrow=none;html=1;exitX=1.025;exitY=0.133;exitDx=0;exitDy=0;exitPerimeter=0;" edge="1" parent="1" source="vOUudeW_BmgEyp0vM7fF-8" target="vOUudeW_BmgEyp0vM7fF-42">
          <mxGeometry width="50" height="50" relative="1" as="geometry">
            <mxPoint x="450" y="260" as="sourcePoint" />
            <mxPoint x="930" y="228" as="targetPoint" />
          </mxGeometry>
        </mxCell>
        <mxCell id="vOUudeW_BmgEyp0vM7fF-42" value="Artículo 18. Derecho de oposición" style="text;html=1;strokeColor=none;fillColor=none;align=center;verticalAlign=middle;whiteSpace=wrap;rounded=0;" vertex="1" parent="1">
          <mxGeometry x="940" y="240" width="100" height="20" as="geometry" />
        </mxCell>
        <mxCell id="vOUudeW_BmgEyp0vM7fF-43" value="" style="rounded=1;whiteSpace=wrap;html=1;fillColor=#FFFFFF;" vertex="1" parent="1">
          <mxGeometry x="940" y="410" width="120" height="60" as="geometry" />
        </mxCell>
        <mxCell id="vOUudeW_BmgEyp0vM7fF-44" value="" style="endArrow=classic;html=1;" edge="1" parent="1">
          <mxGeometry width="50" height="50" relative="1" as="geometry">
            <mxPoint x="1000" y="280" as="sourcePoint" />
            <mxPoint x="1000" y="405" as="targetPoint" />
          </mxGeometry>
        </mxCell>
        <mxCell id="vOUudeW_BmgEyp0vM7fF-45" value="" style="endArrow=classic;html=1;exitX=0.25;exitY=0;exitDx=0;exitDy=0;entryX=0.5;entryY=1;entryDx=0;entryDy=0;" edge="1" parent="1" source="vOUudeW_BmgEyp0vM7fF-9" target="vOUudeW_BmgEyp0vM7fF-47">
          <mxGeometry width="50" height="50" relative="1" as="geometry">
            <mxPoint x="480" y="550" as="sourcePoint" />
            <mxPoint x="-100" y="520" as="targetPoint" />
          </mxGeometry>
        </mxCell>
        <mxCell id="vOUudeW_BmgEyp0vM7fF-46" value="" style="endArrow=classic;html=1;exitX=0.75;exitY=0;exitDx=0;exitDy=0;entryX=0.5;entryY=1;entryDx=0;entryDy=0;" edge="1" parent="1" source="vOUudeW_BmgEyp0vM7fF-9" target="vOUudeW_BmgEyp0vM7fF-48">
          <mxGeometry width="50" height="50" relative="1" as="geometry">
            <mxPoint x="480" y="550" as="sourcePoint" />
            <mxPoint x="60" y="520" as="targetPoint" />
          </mxGeometry>
        </mxCell>
        <mxCell id="vOUudeW_BmgEyp0vM7fF-47" value="&lt;font face=&quot;Verdana&quot;&gt;Si la información se obtiene del afectado:&lt;br&gt;-Identidad del responsable&lt;br&gt;-Finalidad del tratamiento&lt;br&gt;&lt;/font&gt;" style="rounded=1;whiteSpace=wrap;html=1;fillColor=#FFFFFF;" vertex="1" parent="1">
          <mxGeometry x="114" y="-280" width="260" height="60" as="geometry" />
        </mxCell>
        <mxCell id="vOUudeW_BmgEyp0vM7fF-48" value="&lt;font face=&quot;Verdana&quot;&gt;Si la información no se obtiene del afectado:&lt;br&gt;-Categorías de datos objeto de tratamiento&lt;br&gt;-Fuentes de las que procedieran los datos&lt;/font&gt;" style="rounded=1;whiteSpace=wrap;html=1;fillColor=#FFFFFF;" vertex="1" parent="1">
          <mxGeometry x="410" y="-280" width="280" height="60" as="geometry" />
        </mxCell>
      </root>
    </mxGraphModel>
  </diagram>
</mxfile>
